<?xml version="1.0" encoding="utf-8"?>
<!-- Generator: Adobe Illustrator 26.0.2, SVG Export Plug-In . SVG Version: 6.00 Build 0)  -->
<!DOCTYPE svg PUBLIC "-//W3C//DTD SVG 1.1//EN" "http://www.w3.org/Graphics/SVG/1.1/DTD/svg11.dtd" [
	<!ENTITY ns_extend "http://ns.adobe.com/Extensibility/1.0/">
	<!ENTITY ns_ai "http://ns.adobe.com/AdobeIllustrator/10.0/">
	<!ENTITY ns_graphs "http://ns.adobe.com/Graphs/1.0/">
	<!ENTITY ns_vars "http://ns.adobe.com/Variables/1.0/">
	<!ENTITY ns_imrep "http://ns.adobe.com/ImageReplacement/1.0/">
	<!ENTITY ns_sfw "http://ns.adobe.com/SaveForWeb/1.0/">
	<!ENTITY ns_custom "http://ns.adobe.com/GenericCustomNamespace/1.0/">
	<!ENTITY ns_adobe_xpath "http://ns.adobe.com/XPath/1.0/">
]>
<svg version="1.1" id="Ebene_1" xmlns:x="&ns_extend;" xmlns:i="&ns_ai;" xmlns:graph="&ns_graphs;"
	 xmlns="http://www.w3.org/2000/svg" xmlns:xlink="http://www.w3.org/1999/xlink" x="0px" y="0px" viewBox="0 0 721.2 308.3"
	 style="enable-background:new 0 0 721.2 308.3;" xml:space="preserve">
<style type="text/css">
	.st0{fill:#0284C7;}
	.st1{fill:#697389;}
</style>
<metadata>
	<sfw  xmlns="&ns_sfw;">
		<slices></slices>
		<sliceSourceBounds  bottomLeftOrigin="true" height="308.5" width="721.2" x="0" y="-0.2"></sliceSourceBounds>
	</sfw>
</metadata>
<g>
	<path class="st0" d="M123,3c82.6-16.6,163.4,37.2,180,119.8c3.7,18.5,4,37,1.1,54.6c-9.2-37.7-46.5-61.8-84.7-54.4
		c-39.1,7.9-64.7,46.2-57,85.5c7.9,39.1,46.2,64.7,85.5,56.7c4.5-0.8,8.7-2.1,12.7-4c-20.6,20.6-47,35.4-77.6,41.4
		C100.3,319.5,19.6,265.6,2.9,183C-13.4,100.4,40.4,19.4,123,3"/>
	<path class="st0" d="M280.3,286.3l-2.8,15.8c7.9,0,12.9-2.9,15-8.7c0.5-1.1,1.1-3.2,1.8-5.8c0.1-0.4,0.2-0.8,0.2-1.3h9.5
		c-0.6,2.5-1.4,4.9-2.4,7.1c-1.3,3.7-3.2,6.9-5.5,9.2c-2.1,2.1-5.3,3.7-9,4.2c-3.7,0.8-7.9,1.1-12.4,1.1H267l4-21.6L280.3,286.3
		L280.3,286.3z M320.4,286.3l-3.9,21.6h-8.4l3.8-21.6H320.4z M344.7,286.3l-2.1,11c0,0.3,0,0.8-0.3,1.8c0.3,2.4,1.8,3.4,4.8,3.4
		c3.4,0,5.3-1.6,5.8-4.8l2.1-11.6h8.5l-2.2,11.8c-0.3,1.6-1.1,3.4-1.8,5c-1.1,1.3-2.6,2.6-4.5,3.7c-1.8,1.1-4.2,1.6-7.1,1.6
		c-4.8,0-8.2-0.5-10.6-1.6c-2.1-1.1-3.4-3.2-3.4-6.3c0-1.1,0-2.1,0.3-3.4l1.9-10.8h8.6V286.3z M379.3,286.3
		c-0.2,0.7-0.4,1.5-0.7,2.3c-0.8,2.6-1.1,5-1.1,7.1c0,0.5,0.3,1.3,0.3,2.4c0.3,0.8,0.5,1.6,0.8,2.1c0.3,0.8,0.8,1.3,1.6,1.6
		c0.8,0.5,1.6,0.8,2.9,0.8c1.6,0,3.2-0.5,4.8-1.6l-1.1,6.1c-2.9,1.1-5.3,1.3-7.4,1.3c-6.6,0-10.3-3.4-11.1-10.6c0-2.4,0.5-5,1.1-7.7
		c0.3-1.4,0.6-2.7,0.9-3.9L379.3,286.3z M396.5,286.3l-3.9,21.6h8.4l3.4-18.2l8.4,18.2h10l-9.8-19l2.4-2.6H407l-2.2,2.6h-0.3
		l0.5-2.6H396.5z M440.6,286.3l-3.9,21.6h-8.4l3.9-21.6H440.6z M448.3,286.3l-1.9,10.8c-0.3,1.3-0.3,2.4-0.5,3.4
		c0.3,3.2,1.3,5.3,3.7,6.3c2.1,1.1,5.8,1.6,10.3,1.6c2.9,0,5.5-0.5,7.4-1.6c1.8-1.1,3.4-2.4,4.2-3.7c1.1-1.6,1.8-3.4,2.1-5l2.2-11.8
		h-8.5l-2.1,11.6c-0.5,3.2-2.4,4.8-5.8,4.8c-2.9,0-4.5-1.1-4.7-3.4c0.3-1.1,0.3-1.6,0.3-1.8l2.1-11h-8.8V286.3z M494.1,286.3
		l-3.9,21.6h-8.4l3.9-21.6H494.1z M507.6,286.3l-3.9,21.6h8.4l4.1-21.6H507.6z M536.1,286.3l-3.9,21.6h-8.4l3.9-21.6H536.1z
		 M544.7,286.3c-0.8,2.9-1.5,5.7-1.7,8.4c0.3,0.8,0,1.8-0.3,3.2c0.5,7.1,4.5,10.6,11.6,10.6c3.7,0,7.1-1.1,10-2.9
		c2.6-1.6,4.8-4.8,5.5-9.2H562c-0.3,2.4-1.1,4-2.1,5c-1.3,1.1-2.6,1.6-4.2,1.6c-2.6,0-4-1.8-4.2-5c0.3-2.6,0.5-4.5,0.8-5.8H571
		c0.3-1.3,0.3-2.1,0.5-2.9c0-0.8,0-1.8,0.3-2.8h-8.4c-0.1,0.4-0.2,0.8-0.3,1.3h-10c0.1-0.4,0.1-0.9,0.2-1.3L544.7,286.3z
		 M586.3,286.3c-0.2,0.7-0.4,1.5-0.6,2.3c-0.8,2.6-1.3,5-1.3,7.1c0.3,0.5,0.3,1.3,0.5,2.4c0.3,0.8,0.5,1.6,0.8,2.1
		c0.3,0.8,0.8,1.3,1.6,1.6c0.5,0.5,1.6,0.8,2.6,0.8c1.8,0,3.4-0.5,4.8-1.6l-1.1,6.1c-2.6,1.1-5,1.3-7.4,1.3c-6.3,0-10-3.4-10.8-10.6
		c0-2.4,0.3-5,1.1-7.7c0.3-1.4,0.6-2.7,0.9-3.9L586.3,286.3z M603.7,286.3l-3.9,21.6h8.4l3.7-21.6H603.7z M622.3,286.3l-3.8,21.6
		h8.4l3.8-21.6H622.3z M647.2,286.3l-3.9,21.6h-8.4l3.8-21.6H647.2z M665.9,286.3l-3.9,21.6h-8.4l3.8-21.6H665.9z M682.2,286.3
		l-3.8,21.6H670l3.8-21.6H682.2z M690.3,286.3l-3.9,21.6h8.4l3.2-18.2h0.3l8.4,18.2h9.8l-9.8-19l2.5-2.6h-8.4l-2.2,2.6h-0.3l0.5-2.6
		H690.3z"/>
	<path class="st0" d="M271.2,286.3l5.5-29.6H291c9,0,13.7,4.2,14.8,12.9v1.6c0,3.4-0.3,6.9-0.8,10.8c-0.2,1.4-0.5,2.9-0.8,4.3h-9.5
		c0.4-2.3,0.9-4.7,1.3-7.2c0.3-2.9,0.5-5.5,0.5-7.4c0-2.6-1.1-5-3.2-6.6c-1.8-1.8-4.8-2.9-8.7-2.9l-4.3,24.1L271.2,286.3
		L271.2,286.3z M311.9,286.3l2.3-12.7h8.7l-0.8,4.2c2.6-3.2,6.1-4.8,10.6-4.8l-1.1,6.3h-1.8c-2.9,0-5,0.5-6.6,1.6
		c-1.3,1.1-2.1,2.6-2.6,5l-0.1,0.3h-8.6V286.3z M336.1,286.3l2.3-12.7h8.7l-2.4,12.7H336.1z M355.1,286.3l2.4-12.7h8.4l-2.3,12.7
		H355.1z M370.3,286.3c0.4-1.3,0.9-2.5,1.4-3.7c1.1-2.1,2.1-4,3.2-5c2.6-3.2,6.3-4.5,11.1-4.5c2.1,0,4.2,0.3,6.6,1.1l-1.1,6.6h-0.3
		c-0.5-1.1-1.8-1.6-4-1.6c-2.9,0-5,1.3-6.6,3.7c-0.5,0.9-1,2-1.4,3.5L370.3,286.3z M405.1,286.3l6.1-34.9h-8.4l-6.4,34.9H405.1z
		 M415.5,286.3l11.8-12.7h-9.2l-11,12.7H415.5z M432.1,286.3l6.4-34.9h8.4l-6.4,34.9H432.1z M456.9,286.3l2.4-12.7h-8.7l-2.3,12.7
		H456.9z M475.7,286.3l2.3-12.7h-8.4l-2.4,12.7H475.7z M485.7,286.3l1.4-7.7h-4.2l1.1-5h4.2l2.4-13.2c0.5-3.4,1.8-6.1,4-7.4
		c2.1-1.6,4.5-2.4,7.4-2.4c1.6,0,3.7,0.5,6.3,1.3l-1.6,6.6c-1.1-0.5-2.1-0.8-3.4-0.8s-2.4,0.3-3.2,0.8c-0.8,0.8-1.1,1.6-1.3,2.6
		l-2.1,12.4h7.1l-1.1,5h-7.1l-1.4,7.7h-8.5V286.3z M516.2,286.3l1.5-7.7h4.5l0.8-5h-4.5l1.8-9.8h-8.4l-1.8,9.8h-4.8l-0.8,5h4.5
		l-1.4,7.7H516.2z M527.6,286.3l1.4-7.7h-4.5l0.8-5h4.8l1.6-9.8h8.7l-2.1,9.8h4.8l-1.1,5h-4.5l-1.4,7.7H527.6z M553.2,286.3
		c0.9-5.2,3-7.7,6.4-7.7c2.6,0,4,1.6,4,4.8c0,1,0,1.9-0.2,3h8.4v-0.1v-2.4c0-3.4-1.1-6.1-2.6-7.9c-1.6-1.8-4.5-2.9-8.7-2.9
		c-4,0-7.4,1.1-10,3.4c-2.4,2.4-4.2,5.3-5.3,8.4c-0.1,0.5-0.3,0.9-0.4,1.4L553.2,286.3L553.2,286.3z M577.5,286.3
		c0.4-1.3,0.9-2.5,1.4-3.7c1.1-2.1,2.1-4,3.2-5c2.6-3.2,6.3-4.5,10.8-4.5c2.4,0,4.5,0.3,6.9,1.1l-1.1,6.6h-0.3
		c-0.5-1.1-1.8-1.6-4.2-1.6c-2.6,0-4.8,1.3-6.6,3.7c-0.4,0.9-0.8,2-1.3,3.5L577.5,286.3z M611.9,286.3l0.3-1.6
		c0.8-4,3.2-6.1,6.6-6.1c2.6,0,4,1.3,4.2,3.4c0,0.3-0.3,0.5-0.3,1.1v0.8l-0.4,2.4h8.5l0.4-2.2c0.3-2.6,0.3-4.2,0.3-5
		c0-3.7-1.8-5.8-5-6.1h-2.6c-4,0-7.4,1.6-10,4.5l4.8-26.1H610l-6.4,34.9L611.9,286.3L611.9,286.3z M638.7,286.3l2.3-12.7h8.7l-0.8,4
		h0.3c2.4-3.2,5.8-4.5,9.8-4.5c2.6,0,4.8,0.3,5.8,1.3c1.3,0.8,1.8,2.4,1.8,4.5c0.3,0.5,0,1.8,0,4l-0.6,3.5h-8.5l0.4-2.4v-0.8
		c0.3-0.5,0.3-0.8,0.3-1.1c-0.3-2.1-1.6-3.4-4-3.4c-2.1,0-3.7,0.5-4.5,1.6c-1.1,1.1-1.8,2.9-2.4,5.5l-0.1,0.6h-8.5V286.3z
		 M673.8,286.3l2.2-12.7h8.4l-2.2,12.7H673.8z M698.7,286.3l6.4-34.9h-8.4l-6.4,34.9H698.7z M709.1,286.3l12.1-12.7h-9.5l-11,12.7
		H709.1z M676.6,263.5c0-1.3,0.8-2.4,2.1-3.2c1.1-1.1,2.6-1.6,4.2-1.6c1.1,0,2.1,0.3,3.2,0.8c1.1,0.5,1.6,1.3,1.8,2.4
		c0,1.6-0.5,2.9-1.6,3.7c-1.3,0.5-2.9,1.3-5,1.6c-1.3,0-2.6-0.3-3.4-1.1C677.1,265.6,676.6,264.6,676.6,263.5"/>
	<g>
		<path class="st1" d="M249.1,234.5c-3,2.1-6.3,3-10.1,3c-6.8,0-11.8-2.1-14.9-6.3c-3.2-4.3-4.8-10.5-4.8-18.6h40.2v-3.9
			c0-3.3-0.5-6.6-1.6-9.6c-1-3-2.7-5.7-4.9-8c-2.3-2.3-5.4-4.1-8.9-5.5c-3.5-1.3-8.2-2.1-13.6-2.1c-5.1,0-9.6,0.9-13.8,2.6
			c-4.1,1.8-7.6,4.1-10.2,6.9c-2.7,2.8-4.9,6.1-6.3,9.9c-1.5,3.7-2.2,7.6-2.2,11.6c0,4.5,0.7,8.7,2.1,12.6c1.3,3.8,3.4,7.1,6.2,9.9
			c2.8,2.8,6.2,5.1,10.5,6.7c4.3,1.7,9.4,2.6,15.2,2.6c3.5,0,6.7-0.4,9.4-1.2c2.7-0.7,5.4-1.8,8-3.4c2.4-1.3,4.8-3,6.7-5.1
			c1.9-1.9,3.7-4.1,5-6.3l-4.4-3.6C254.6,229.9,252.1,232.4,249.1,234.5z M222.3,193c1.8-3,4.4-4.6,7.4-4.6c1.7,0,3.2,0.5,4.4,1.5
			c1.2,0.9,2.1,2.3,2.8,4.1c0.6,1.6,1,3.7,1.2,6.1c0.2,2.6,0.4,5,0.4,7.3l-19.1,0.2C219.5,200.9,220.5,196,222.3,193z"/>
		<path class="st1" d="M571,187.1c-2.3-2.3-5.2-3.4-8.9-3.4c-3.3,0-6.6,0.9-9.6,2.7s-6,4.3-8.7,7.6h-0.2v-8.7l-0.9-0.9l-28.5,1.6
			v4.4c1.3,0.1,2.6,0.4,3.7,0.6c1,0.4,1.9,0.7,2.7,1.2c1,0.7,1.7,1.6,2.4,2.7c0.6,1.1,1,2.4,1,3.9v34.5c0,1.5-0.2,2.7-0.7,3.5
			c-0.5,1-1.3,1.6-2.6,2.1c-0.7,0.2-1.6,0.4-2.6,0.5c-1.1,0.1-2.1,0.2-3,0.4v4.4h39.8v-4.4c-0.9,0-2.3-0.2-4.3-0.5
			c-1.9-0.4-3.3-0.7-4.3-1.1c-1-0.5-1.7-1.2-2.2-2.2c-0.4-0.9-0.6-2.1-0.6-3.4v-32.7c1.6-1.9,3.3-3.5,5.4-4.8
			c1.9-1.1,3.9-1.7,5.7-1.8c-0.1,0.6-0.4,1.3-0.6,2.2c-0.1,0.7-0.2,1.8-0.2,3.2c0,2.8,1,5,3,6.5c1.9,1.5,4.4,2.2,7.3,2.2
			c3,0,5.5-1.1,7.3-3.4s2.8-5,2.8-7.9C574.3,192.3,573.2,189.4,571,187.1z"/>
		<path class="st1" d="M322.7,183.7c-3.3,0-6.6,0.9-9.6,2.7s-6,4.3-8.7,7.6h-0.2v-8.7l-0.9-0.9l-28.5,1.6v4.4
			c1.3,0.1,2.6,0.4,3.7,0.6c1,0.4,1.9,0.7,2.7,1.2c1,0.7,1.7,1.6,2.4,2.7c0.6,1.1,1,2.4,1,3.9v34.5c0,1.5-0.2,2.7-0.7,3.5
			c-0.5,1-1.3,1.6-2.6,2.1c-0.7,0.2-1.6,0.4-2.6,0.5c-1.1,0.1-2.1,0.2-3,0.4v4.4h39.8v-4.4c-0.9,0-2.3-0.2-4.3-0.5
			c-1.9-0.4-3.3-0.7-4.3-1.1c-1-0.5-1.7-1.2-2.2-2.2c-0.4-0.9-0.6-2.1-0.6-3.4v-32.7c1.6-1.9,3.3-3.5,5.4-4.8
			c1.9-1.1,3.9-1.7,5.7-1.8c-0.1,0.6-0.4,1.3-0.6,2.2c-0.1,0.7-0.2,1.8-0.2,3.2c0,2.8,1,5,3,6.5c1.9,1.5,4.4,2.2,7.3,2.2
			c3,0,5.5-1.1,7.3-3.4s2.8-5,2.8-7.9c0-3.8-1.1-6.7-3.2-9C329.3,184.8,326.4,183.7,322.7,183.7z"/>
		<path class="st1" d="M488.6,234.5c-3,2.1-6.3,3-10.1,3c-6.8,0-11.8-2.1-14.9-6.3c-3.2-4.3-4.8-10.5-4.8-18.6H499v-3.9
			c0-3.3-0.5-6.6-1.6-9.6c-1-3-2.7-5.7-4.9-8c-2.3-2.3-5.4-4.1-8.9-5.5c-3.5-1.3-8.2-2.1-13.6-2.1c-5.1,0-9.6,0.9-13.8,2.6
			c-4.1,1.8-7.6,4.1-10.2,6.9c-2.7,2.8-4.9,6.1-6.3,9.9c-1.5,3.7-2.2,7.6-2.2,11.6c0,4.5,0.7,8.7,2.1,12.6c1.3,3.8,3.4,7.1,6.2,9.9
			s6.2,5.1,10.5,6.7c4.3,1.7,9.4,2.6,15.2,2.6c3.5,0,6.7-0.4,9.4-1.2c2.7-0.7,5.4-1.8,8-3.4c2.4-1.3,4.8-3,6.7-5.1
			c1.9-1.9,3.7-4.1,5-6.3l-4.4-3.6C494.1,229.9,491.6,232.4,488.6,234.5z M461.8,193c1.8-3,4.4-4.6,7.4-4.6c1.7,0,3.2,0.5,4.4,1.5
			c1.2,0.9,2.1,2.3,2.8,4.1c0.6,1.6,1,3.7,1.2,6.1c0.2,2.6,0.4,5,0.4,7.3l-19.1,0.2C459,200.9,460,196,461.8,193z"/>
		<path class="st1" d="M416.7,237.1c-1.1-0.6-1.9-1.3-2.4-2.4c-0.5-1-0.7-2.3-0.7-3.8v-78l-0.9-1l-32.2,1.6v4.4
			c1.8,0.1,3.7,0.4,5.6,0.9c1.8,0.4,3.3,1,4.5,1.8c1,0.7,1.8,1.7,2.4,2.9c0.6,1.3,0.9,2.7,0.9,4.1V187c-1.7-1-4-1.8-6.8-2.6
			c-2.8-0.7-5.8-1.1-9.1-1.1c-8.3,0-15.2,3-21.1,9c-5.7,6-8.7,13.2-8.7,21.6c0,9.4,2.6,17.2,7.8,23.2c5.1,6,11.7,8.9,19.7,8.9
			c3.4,0,6.7-0.7,10-2.3c3.3-1.6,6-3.4,7.9-5.6l0.4,0.1v5.5l0.9,0.9l29.4-1.7v-4.4h0c-1,0-2.3-0.1-3.9-0.4
			C418.8,237.9,417.6,237.6,416.7,237.1z M394,232.4c-1.4,1.5-2.9,2.7-4.4,3.6c-1.6,1-3.5,1.5-6,1.5c-2.6,0-4.8-0.6-6.5-1.8
			c-1.8-1.2-3.3-2.8-4.5-4.9c-1.1-2.2-1.9-4.5-2.3-7.1c-0.5-2.6-0.7-5.5-0.7-8.7c0-8.3,1.2-14.6,3.8-19.1s5.8-6.7,9.7-6.7
			c1.7,0,3.2,0.4,4.5,1c1.3,0.6,2.3,1.3,3.2,2.2c0.9,1,1.5,2.1,2.1,3.2c0.5,1.1,0.9,2.1,1.1,3V232.4z"/>
		<path class="st1" d="M203.5,146.4c1-1.6,2.7-3,5.1-4.3c1.6-1,3.2-1.6,4.8-2.1c1.6-0.6,3.2-1,4.8-1.1v-6.5h-44.7v6.3
			c1.8,0.2,3.7,0.3,6.1,0.6c2.2,0.3,4.2,0.6,5.6,1.1c1.8,0.6,3,1.3,4.2,2.1c1,0.8,1.4,1.8,1.4,2.9c0,1.8-0.3,3.8-0.8,6.4
			c-0.6,2.6-1.6,5.6-2.6,9.3c-1.8,6.1-4,13.5-6.6,22c-2.6,8.5-6.1,19.6-10.4,33L141,132.4h-16.5l-25.3,81c-5.5-16.8-10.3-31-14-42.3
			c-3.8-11.4-6.4-19.1-7.7-23.3c-0.2-0.8-0.3-1.6-0.5-2.2c-0.2-0.8-0.3-1.4-0.3-2.2c0-0.3,0.2-0.8,0.3-1.1c0.2-0.5,0.8-1,1.8-1.4
			c1-0.3,2.2-0.8,4-1.1c1.8-0.5,4.3-0.8,7.9-1.3v-5.9H31.4v6.1c2.1,0.3,3.8,0.6,5.5,1.1c1.6,0.3,3.2,1.1,4.7,2.1
			c1.9,1.3,3.5,2.6,4.8,3.8c1.3,1.2,2.4,3.4,3.4,6.1c3.2,9.3,7.1,20.8,11.7,34.5c4.7,13.8,11.4,33.4,20,58.7h15.9l26.3-82.6L153,245
			h15.7c6.6-18.9,12.8-37,18.8-54.5s10.4-30.1,13.3-38.2C201.6,150.1,202.6,148.1,203.5,146.4z"/>
	</g>
</g>
</svg>
